<?xml version="1.0" encoding="UTF-8"?>
<svg id="Layer_1" xmlns="http://www.w3.org/2000/svg" version="1.1" viewBox="0 0 2592 1728">
  <!-- Generator: Adobe Illustrator 30.0.0, SVG Export Plug-In . SVG Version: 2.1.1 Build 123)  -->
  <defs>
    <style>
      .st0 {
        fill: #fff;
      }
    </style>
  </defs>
  <g>
    <path class="st0" d="M848.48,742.62v41.6h-220.2v-80.48h189.17c17.14,0,31.03,17.41,31.03,38.88Z"/>
    <path class="st0" d="M628.28,821.96h160.56v74.45h-96.33v64.22h155.97v33.46c0,16.99-13.78,30.77-30.77,30.77h-189.43v-202.9Z"/>
    <path class="st0" d="M1258.78,727.28l-125.4,297.58-65.6-155.51-65.6,155.51-135.33-321.12h69.73l65.6,156.43,30.74-73.4-34.87-83.03h69.73l65.6,156.43,65.6-156.43h44.18c12.13,0,20.34,12.37,15.63,23.54Z"/>
    <path class="st0" d="M1287.07,703.74h28.7c19.62,0,35.53,15.91,35.53,35.53v285.59h-64.23v-321.12Z"/>
    <path class="st0" d="M1528.42,850.96c-6.61-6.08-13.14-12.28-19.73-18.44-40.24-37.63-83.28-74.46-121.43-112.45-3.55-3.53-17.6-10.82-17.6-16.33v321.13h64.2v-175.71l192.67,175.71v-115.74c-2.71-.56-5.36-1.23-8.07-1.94-36.06-9.52-63.6-31.88-90.04-56.22ZM1562.33,703.74v19.1c1.79,14.05,4.39,27.74,8.27,40.61,8.99,33,28.14,61.86,55.93,78.3v-138.01h-64.2Z"/>
    <path class="st0" d="M1876.56,898.7c0,45.87-35.75,70.64-74.32,70.64-34.58,0-71.1-19.87-86.07-61.65-11.47.99-22.63,3.41-34.07,4.6-10.62,1.02-21.2,1.12-31.67.31,19.05,79.17,85.25,116.41,149.5,116.41,27.07,0,53.68-6.44,76.62-19.26v15.12h64.26v-136.22l-64.26,5.47v4.6ZM1710.1,856.31c5.21-47.14,40.51-87.34,89.34-92.4,35.75-3.68,69.16,11.54,89.54,37.54l51.84-38.05c-31.52-40.56-81.37-66.25-137.2-64.1-84.64,3.17-148.64,70.54-157.37,151.45,6.03,2.04,12.41,3.58,19.05,4.49,8.99,1.48,44.8,1.07,44.8,1.07Z"/>
    <path class="st0" d="M2189.59,712.5c-8.12-3.47-16.6-6.33-25.39-8.48-12.77-3.22-26.15-4.9-39.89-4.9-15.32,0-30.19,2.09-44.28,6.03-16.6,4.6-32.13,11.7-46.17,20.94-44.54,29.17-74.06,79.22-74.73,136.22l64.26,1.58c.2-55.32,45.51-100.52,100.93-100.52s100.93,45.41,100.93,100.88-45.41,100.93-100.93,100.93c-49.65,0-91.17-36.32-99.45-83.72l-64.2,5.47c11.08,80.6,80.09,142.51,163.65,142.51,91.33,0,165.19-73.86,165.19-165.19,0-68.09-41.12-126.47-99.91-151.75Z"/>
    <polygon class="st0" points="2085.57 876.33 2184.77 867.9 2087.06 914.99 2085.57 876.33"/>
    <polygon class="st0" points="2185.33 862.53 2184.92 867.85 2085.17 865.4 2083.94 827.34 2185.33 862.53"/>
    <path class="st0" d="M327.9,697.28h175.26c38.01,0,68.86,30.86,68.86,68.86h0c0,9.98-8.1,18.08-18.08,18.08h-251.44v-61.55c0-14.01,11.38-25.39,25.39-25.39Z"/>
    <path class="st0" d="M560.8,904.93c.36.36.77.72,1.17,1.02h-259.48v-86.99h259.53c-.41.31-.82.66-1.23,1.07l-31.21,31.21c-6.18,6.18-6.18,16.24,0,22.42l31.21,31.26Z"/>
    <path class="st0" d="M302.51,940.71h269.52v36.51c0,27.83-22.6,50.43-50.43,50.43h-219.09v-86.94h0Z"/>
    <polygon class="st0" points="2185.48 867.85 2184.77 867.9 2184.92 867.85 2185.48 867.85"/>
    <path class="st0" d="M2124.96,685.52c-37.95-86.74,50.41-88.5,66.09-159.33,0,0,85.16,132.72-50.83,157.14-5.07-37.3,36.25-43.95,27.31-77.01-5.47,33.22-46.85,28.94-42.57,79.2h0Z"/>
    <path class="st0" d="M2105.42,684.47c12.13-64.56-47.88-51.97-69.51-97.41,0,0-36.88,103,58.86,98.31-2.39-26.01-31.36-24.06-30.47-47.8,8.87,21.61,36.18,12.26,41.13,46.9h0Z"/>
    <path class="st0" d="M2164.21,704.02c-13.94,4.29-28.76,6.64-44.13,6.64-13.89,0-27.33-1.89-40.05-5.52,14.1-3.93,28.96-6.03,44.28-6.03,13.74,0,27.12,1.69,39.89,4.9Z"/>
  </g>
  <g>
    <path class="st0" d="M1007.19,1189.08h54.63v11.65h-68.01v-93.72h66.14v11.65h-52.75v70.42ZM1005.99,1147.45h48.2v11.38h-48.2v-11.38Z"/>
    <path class="st0" d="M1086.19,1200.73l38.96-53.15v10.31l-36.82-50.88h15.26l29.19,40.03-6.03.13,29.05-40.17h14.59l-36.55,50.07v-9.64l38.96,53.29h-15.4l-31.06-42.71h5.89l-30.66,42.71h-15.4Z"/>
    <path class="st0" d="M1201.6,1200.73v-93.72h36.55c8.21,0,15.22,1.3,21.02,3.88,5.8,2.59,10.26,6.34,13.39,11.25,3.12,4.91,4.69,10.76,4.69,17.54s-1.56,12.61-4.69,17.47c-3.13,4.87-7.59,8.62-13.39,11.25-5.8,2.63-12.81,3.95-21.02,3.95h-29.19l6.03-6.29v34.68h-13.39ZM1214.99,1167.39l-6.03-6.69h28.79c8.57,0,15.06-1.83,19.48-5.49,4.42-3.66,6.63-8.84,6.63-15.53s-2.21-11.87-6.63-15.53c-4.42-3.66-10.91-5.49-19.48-5.49h-28.79l6.03-6.69v55.43Z"/>
    <path class="st0" d="M1356.64,1201.8c-7.14,0-13.77-1.2-19.88-3.62-6.11-2.41-11.4-5.78-15.87-10.11-4.46-4.33-7.95-9.39-10.44-15.2-2.5-5.8-3.75-12.14-3.75-19.01s1.25-13.21,3.75-19.01c2.5-5.8,5.98-10.87,10.44-15.2,4.46-4.33,9.73-7.7,15.8-10.11,6.07-2.41,12.72-3.61,19.95-3.61s13.72,1.18,19.75,3.55c6.02,2.37,11.29,5.71,15.8,10.04,4.51,4.33,7.99,9.4,10.44,15.2,2.45,5.8,3.68,12.18,3.68,19.15s-1.23,13.35-3.68,19.15c-2.46,5.8-5.94,10.87-10.44,15.2-4.51,4.33-9.77,7.68-15.8,10.04-6.03,2.37-12.61,3.55-19.75,3.55ZM1356.64,1189.89c5.18,0,9.97-.89,14.39-2.68,4.42-1.78,8.25-4.31,11.51-7.56,3.26-3.26,5.8-7.07,7.63-11.45,1.83-4.37,2.74-9.15,2.74-14.33s-.92-9.95-2.74-14.33c-1.83-4.37-4.38-8.19-7.63-11.45-3.26-3.26-7.1-5.78-11.51-7.56-4.42-1.78-9.22-2.68-14.39-2.68s-10.11.89-14.53,2.68c-4.42,1.79-8.28,4.31-11.58,7.56-3.3,3.26-5.87,7.07-7.7,11.45-1.83,4.38-2.74,9.15-2.74,14.33s.91,9.95,2.74,14.33c1.83,4.37,4.39,8.19,7.7,11.45,3.3,3.26,7.16,5.78,11.58,7.56,4.42,1.79,9.26,2.68,14.53,2.68Z"/>
    <path class="st0" d="M1442.86,1200.73v-93.72h36.55c8.21,0,15.22,1.3,21.02,3.88,5.8,2.59,10.26,6.34,13.39,11.25,3.12,4.91,4.69,10.76,4.69,17.54s-1.56,12.61-4.69,17.47c-3.13,4.87-7.59,8.59-13.39,11.18-5.8,2.59-12.81,3.88-21.02,3.88h-29.19l6.03-6.16v34.68h-13.39ZM1456.25,1167.39l-6.03-6.56h28.79c8.57,0,15.06-1.85,19.48-5.56,4.42-3.7,6.63-8.9,6.63-15.6s-2.21-11.87-6.63-15.53c-4.42-3.66-10.91-5.49-19.48-5.49h-28.79l6.03-6.69v55.43ZM1505.52,1200.73l-23.83-34.01h14.33l24.1,34.01h-14.59Z"/>
    <path class="st0" d="M1573.53,1200.73v-82.07h-32.13v-11.65h77.52v11.65h-32.13v82.07h-13.26Z"/>
  </g>
  <rect class="st0" x="302.5" y="1105.94" width="652.06" height="95.86"/>
  <rect class="st0" x="1644.64" y="1105.94" width="644.86" height="95.86"/>
</svg>