<?xml version="1.0" encoding="UTF-8"?>
<svg id="Layer_1" xmlns="http://www.w3.org/2000/svg" version="1.1" viewBox="0 0 2592 1728">
  <!-- Generator: Adobe Illustrator 30.0.0, SVG Export Plug-In . SVG Version: 2.1.1 Build 123)  -->
  <defs>
    <style>
      .st0 {
        fill: #1b733a;
      }
    </style>
  </defs>
  <path class="st0" d="M848.48,747.75v41.6h-220.2v-80.48h189.17c17.14,0,31.03,17.41,31.03,38.88Z"/>
  <path class="st0" d="M628.28,827.09h160.56v74.45h-96.33v64.22h155.97v33.46c0,16.99-13.78,30.77-30.77,30.77h-189.43v-202.9Z"/>
  <path class="st0" d="M1258.78,732.41l-125.4,297.58-65.6-155.51-65.6,155.51-135.33-321.12h69.73l65.6,156.43,30.74-73.4-34.87-83.03h69.73l65.6,156.43,65.6-156.43h44.18c12.13,0,20.34,12.37,15.63,23.54Z"/>
  <path class="st0" d="M1287.07,708.87h28.7c19.62,0,35.53,15.91,35.53,35.53v285.59h-64.23v-321.12Z"/>
  <path class="st0" d="M1528.42,856.09c-6.61-6.08-13.14-12.28-19.73-18.44-40.24-37.63-83.28-74.46-121.43-112.45-3.55-3.53-17.6-10.82-17.6-16.33v321.13h64.2v-175.71l192.67,175.71v-115.74c-2.71-.56-5.36-1.23-8.07-1.94-36.06-9.52-63.6-31.88-90.04-56.22ZM1562.33,708.87v19.1c1.79,14.05,4.39,27.74,8.27,40.61,8.99,33,28.14,61.86,55.93,78.3v-138.01h-64.2Z"/>
  <path class="st0" d="M1876.56,903.83c0,45.87-35.75,70.64-74.32,70.64-34.58,0-71.1-19.87-86.07-61.65-11.47.99-22.63,3.41-34.07,4.6-10.62,1.02-21.2,1.12-31.67.31,19.05,79.17,85.25,116.41,149.5,116.41,27.07,0,53.68-6.44,76.62-19.26v15.12h64.26v-136.22l-64.26,5.47v4.6ZM1710.1,861.44c5.21-47.14,40.51-87.34,89.34-92.4,35.75-3.68,69.16,11.54,89.54,37.54l51.84-38.05c-31.52-40.56-81.37-66.25-137.2-64.1-84.64,3.17-148.64,70.54-157.37,151.45,6.03,2.04,12.41,3.58,19.05,4.49,8.99,1.48,44.8,1.07,44.8,1.07Z"/>
  <path class="st0" d="M2189.59,717.63c-8.12-3.47-16.6-6.33-25.39-8.48-12.77-3.22-26.15-4.9-39.89-4.9-15.32,0-30.19,2.09-44.28,6.03-16.6,4.6-32.13,11.7-46.17,20.94-44.54,29.17-74.06,79.22-74.73,136.22l64.26,1.58c.2-55.32,45.51-100.52,100.93-100.52s100.93,45.41,100.93,100.88-45.41,100.93-100.93,100.93c-49.65,0-91.17-36.32-99.45-83.72l-64.2,5.47c11.08,80.6,80.09,142.51,163.65,142.51,91.33,0,165.19-73.86,165.19-165.19,0-68.09-41.12-126.47-99.91-151.75Z"/>
  <polygon class="st0" points="2085.57 881.46 2184.77 873.03 2087.06 920.13 2085.57 881.46"/>
  <polygon class="st0" points="2185.33 867.67 2184.92 872.98 2085.17 870.53 2083.94 832.47 2185.33 867.67"/>
  <path class="st0" d="M327.9,702.41h175.26c38.01,0,68.86,30.86,68.86,68.86h0c0,9.98-8.1,18.08-18.08,18.08h-251.44v-61.55c0-14.01,11.38-25.39,25.39-25.39Z"/>
  <path class="st0" d="M560.8,910.07c.36.36.77.72,1.17,1.02h-259.48v-86.99h259.53c-.41.31-.82.66-1.23,1.07l-31.21,31.21c-6.18,6.18-6.18,16.24,0,22.42l31.21,31.26Z"/>
  <path class="st0" d="M302.51,945.84h269.52v36.51c0,27.83-22.6,50.43-50.43,50.43h-219.09v-86.94h0Z"/>
  <polygon class="st0" points="2185.48 872.98 2184.77 873.03 2184.92 872.98 2185.48 872.98"/>
  <path class="st0" d="M2124.96,690.66c-37.95-86.74,50.41-88.5,66.09-159.33,0,0,85.16,132.72-50.83,157.14-5.07-37.3,36.25-43.95,27.31-77.01-5.47,33.22-46.85,28.94-42.57,79.2h0Z"/>
  <path class="st0" d="M2105.42,689.6c12.13-64.56-47.88-51.97-69.51-97.41,0,0-36.88,103,58.86,98.31-2.39-26.01-31.36-24.06-30.47-47.8,8.87,21.61,36.18,12.26,41.13,46.9h0Z"/>
  <path class="st0" d="M2164.21,709.15c-13.94,4.29-28.76,6.64-44.13,6.64-13.89,0-27.33-1.89-40.05-5.52,14.1-3.93,28.96-6.03,44.28-6.03,13.74,0,27.12,1.69,39.89,4.9Z"/>
</svg>